<svg width="117" height="24" viewBox="0 0 117 24" fill="none" xmlns="http://www.w3.org/2000/svg">
<path d="M5.82 19.1C5.07333 19.1 4.38667 18.9533 3.76 18.66C3.13333 18.3667 2.59333 17.96 2.14 17.44C1.7 16.9067 1.35333 16.2867 1.1 15.58C0.86 14.86 0.74 14.0867 0.74 13.26C0.74 12.1133 0.966667 11.0267 1.42 10C1.88667 8.97333 2.51333 8.06 3.3 7.26C4.08667 6.46 4.97333 5.83333 5.96 5.38C6.94667 4.92667 7.98 4.7 9.06 4.7C10.3267 4.7 11.3533 4.98667 12.14 5.56C12.94 6.12 13.4733 6.86667 13.74 7.8L11.36 9.32C11.1867 8.61333 10.8333 8.07333 10.3 7.7C9.78 7.32667 9.16667 7.14 8.46 7.14C7.80667 7.14 7.18 7.30667 6.58 7.64C5.99333 7.96 5.47333 8.39333 5.02 8.94C4.56667 9.48667 4.20667 10.1067 3.94 10.8C3.68667 11.4933 3.56 12.2133 3.56 12.96C3.56 13.6533 3.68 14.28 3.92 14.84C4.16 15.4 4.50667 15.8467 4.96 16.18C5.41333 16.5 5.95333 16.66 6.58 16.66C7.26 16.66 7.94667 16.4733 8.64 16.1C9.33333 15.7267 10.02 15.18 10.7 14.46L10.12 17.18C9.42667 17.8333 8.72667 18.32 8.02 18.64C7.31333 18.9467 6.58 19.1 5.82 19.1ZM10.66 13.72H7.96L8.4 11.7H13.38L11.82 19H9.54L10.66 13.72ZM41.2981 19.2C40.4448 19.2 39.6381 19.06 38.8781 18.78C38.1315 18.5 37.5315 18.1 37.0781 17.58L38.4181 15.9C38.9248 16.34 39.4448 16.68 39.9781 16.92C40.5115 17.1467 41.0515 17.26 41.5981 17.26C41.9715 17.26 42.2915 17.2067 42.5581 17.1C42.8248 16.98 43.0315 16.8267 43.1781 16.64C43.3248 16.44 43.3981 16.2133 43.3981 15.96C43.3981 15.6267 43.2515 15.38 42.9581 15.22C42.6648 15.06 42.2048 14.8867 41.5781 14.7C40.8848 14.4733 40.3115 14.26 39.8581 14.06C39.4181 13.8467 39.0915 13.6 38.8781 13.32C38.6648 13.0267 38.5581 12.66 38.5581 12.22C38.5581 11.4733 38.7648 10.8067 39.1781 10.22C39.6048 9.63333 40.1715 9.17333 40.8781 8.84C41.5981 8.49333 42.3981 8.32 43.2781 8.32C44.0381 8.32 44.7181 8.44 45.3181 8.68C45.9181 8.90667 46.4515 9.26667 46.9181 9.76L45.4981 11.38C45.0715 10.98 44.6581 10.6933 44.2581 10.52C43.8715 10.3333 43.4448 10.24 42.9781 10.24C42.6315 10.24 42.3181 10.2933 42.0381 10.4C41.7715 10.4933 41.5581 10.64 41.3981 10.84C41.2381 11.04 41.1581 11.28 41.1581 11.56C41.1581 11.8667 41.2781 12.0933 41.5181 12.24C41.7715 12.3733 42.2048 12.5333 42.8181 12.72C43.5648 12.9333 44.1781 13.16 44.6581 13.4C45.1381 13.6267 45.4981 13.9 45.7381 14.22C45.9781 14.54 46.0981 14.9467 46.0981 15.44C46.0981 16.1733 45.8981 16.82 45.4981 17.38C45.0981 17.94 44.5381 18.3867 43.8181 18.72C43.0981 19.04 42.2581 19.2 41.2981 19.2ZM51.7484 19.2C50.8684 19.2 50.1018 19.0133 49.4484 18.64C48.8084 18.2533 48.3151 17.7267 47.9684 17.06C47.6351 16.38 47.4684 15.6133 47.4684 14.76C47.4684 13.8933 47.6351 13.0733 47.9684 12.3C48.3018 11.5267 48.7684 10.8467 49.3684 10.26C49.9684 9.66 50.6684 9.19333 51.4684 8.86C52.2684 8.51333 53.1351 8.34 54.0684 8.34C54.8284 8.34 55.4884 8.45333 56.0484 8.68C56.6084 8.90667 57.0418 9.24 57.3484 9.68C57.6551 10.1067 57.8084 10.6333 57.8084 11.26C57.8084 12.3667 57.3018 13.2067 56.2884 13.78C55.2884 14.3533 53.7818 14.64 51.7684 14.64C51.3684 14.64 50.9351 14.6333 50.4684 14.62C50.0018 14.5933 49.4951 14.5533 48.9484 14.5L49.2884 12.82C49.7684 12.86 50.2084 12.8933 50.6084 12.92C51.0084 12.9333 51.4018 12.94 51.7884 12.94C52.6551 12.94 53.3351 12.88 53.8284 12.76C54.3351 12.64 54.7018 12.4667 54.9284 12.24C55.1551 12.0133 55.2684 11.7467 55.2684 11.44C55.2684 11.1733 55.2018 10.96 55.0684 10.8C54.9351 10.6267 54.7484 10.5 54.5084 10.42C54.2818 10.3267 54.0084 10.28 53.6884 10.28C53.1684 10.28 52.6884 10.4067 52.2484 10.66C51.8218 10.9 51.4484 11.2333 51.1284 11.66C50.8084 12.0867 50.5618 12.5733 50.3884 13.12C50.2151 13.6667 50.1284 14.2467 50.1284 14.86C50.1284 15.3133 50.2018 15.7267 50.3484 16.1C50.5084 16.46 50.7418 16.74 51.0484 16.94C51.3551 17.14 51.7484 17.24 52.2284 17.24C52.7618 17.24 53.2618 17.1133 53.7284 16.86C54.2084 16.6067 54.5884 16.2533 54.8684 15.8L56.9884 16.46C56.6418 16.9933 56.1884 17.4667 55.6284 17.88C55.0684 18.2933 54.4551 18.62 53.7884 18.86C53.1218 19.0867 52.4418 19.2 51.7484 19.2ZM66.1106 4.8H75.1906L74.6706 7.22H68.3306L67.5706 10.88H72.8106L72.3306 13.12H67.0906L65.8306 19H63.0906L66.1106 4.8ZM76.4239 19.16C75.7572 19.16 75.2372 19.0067 74.8639 18.7C74.5039 18.38 74.3239 17.9267 74.3239 17.34C74.3239 17.22 74.3306 17.1 74.3439 16.98C74.3706 16.8467 74.3906 16.7133 74.4039 16.58L77.0039 4.4H79.6639L77.2839 15.64C77.2706 15.7067 77.2572 15.7733 77.2439 15.84C77.2439 15.9067 77.2439 15.9733 77.2439 16.04C77.2439 16.5867 77.5172 16.86 78.0639 16.86C78.2106 16.86 78.3772 16.8333 78.5639 16.78C78.7639 16.7267 78.9506 16.66 79.1239 16.58L79.0439 18.62C78.6706 18.7933 78.2372 18.9267 77.7439 19.02C77.2506 19.1133 76.8106 19.16 76.4239 19.16ZM82.3158 8.52H84.9958L82.7758 19H80.0958L82.3158 8.52ZM83.1958 4.4H85.8758L85.3158 7.06H82.6358L83.1958 4.4ZM88.4744 23.46C87.381 23.46 86.4944 23.2667 85.8144 22.88C85.1477 22.5067 84.621 21.9733 84.2344 21.28L85.9944 19.86C86.261 20.3533 86.6477 20.74 87.1544 21.02C87.661 21.3 88.241 21.44 88.8944 21.44C89.4144 21.44 89.9144 21.3333 90.3944 21.12C90.8744 20.92 91.2944 20.6 91.6544 20.16C92.0277 19.7333 92.281 19.18 92.4144 18.5L92.6944 17.18C92.241 17.78 91.681 18.2467 91.0144 18.58C90.361 18.9 89.701 19.06 89.0344 19.06C88.301 19.06 87.6677 18.8733 87.1344 18.5C86.6144 18.1267 86.221 17.6267 85.9544 17C85.6877 16.36 85.5544 15.6533 85.5544 14.88C85.5544 14.0133 85.7077 13.1867 86.0144 12.4C86.3344 11.6133 86.7677 10.92 87.3144 10.32C87.8744 9.70667 88.5077 9.22667 89.2144 8.88C89.9344 8.52 90.6877 8.34 91.4744 8.34C92.2477 8.34 92.881 8.52667 93.3744 8.9C93.881 9.26 94.2544 9.74667 94.4944 10.36L94.8744 8.52H97.2344L95.0944 18.5C94.881 19.54 94.4544 20.4267 93.8144 21.16C93.1744 21.9067 92.3944 22.4733 91.4744 22.86C90.5544 23.26 89.5544 23.46 88.4744 23.46ZM90.4144 16.92C90.681 16.92 90.941 16.8733 91.1944 16.78C91.461 16.6867 91.7144 16.56 91.9544 16.4C92.1944 16.24 92.4144 16.0533 92.6144 15.84C92.8144 15.6133 92.9877 15.3867 93.1344 15.16L93.6544 12.66C93.601 12.2467 93.4744 11.8867 93.2744 11.58C93.0744 11.2733 92.8277 11.04 92.5344 10.88C92.2544 10.7067 91.941 10.62 91.5944 10.62C91.1544 10.62 90.741 10.7333 90.3544 10.96C89.9677 11.1867 89.621 11.4867 89.3144 11.86C89.0077 12.22 88.7677 12.6267 88.5944 13.08C88.421 13.5333 88.3344 14 88.3344 14.48C88.3344 14.92 88.421 15.3333 88.5944 15.72C88.7677 16.0933 89.0077 16.3867 89.3144 16.6C89.6344 16.8133 90.001 16.92 90.4144 16.92ZM100.481 4.4H103.161L101.861 10.46C102.368 9.79333 102.974 9.27333 103.681 8.9C104.388 8.52667 105.114 8.34 105.861 8.34C106.488 8.34 106.974 8.45333 107.321 8.68C107.681 8.89333 107.934 9.18667 108.081 9.56C108.241 9.92 108.321 10.3333 108.321 10.8C108.321 11.0667 108.301 11.34 108.261 11.62C108.234 11.9 108.188 12.18 108.121 12.46L106.741 19H104.061L105.301 13.12C105.341 12.9333 105.368 12.76 105.381 12.6C105.408 12.44 105.421 12.2867 105.421 12.14C105.421 11.6467 105.314 11.2867 105.101 11.06C104.888 10.82 104.588 10.7 104.201 10.7C103.921 10.7 103.594 10.7933 103.221 10.98C102.861 11.1667 102.514 11.4267 102.181 11.76C101.848 12.08 101.574 12.4533 101.361 12.88L100.061 19H97.3809L100.481 4.4ZM109.905 17.34C109.905 17.22 109.912 17.1 109.925 16.98C109.938 16.86 109.958 16.7333 109.985 16.6L111.265 10.58H109.965L110.405 8.52H111.685L112.405 5.12H115.085L114.365 8.52H116.465L116.025 10.58H113.945L112.845 15.7C112.832 15.7533 112.818 15.8067 112.805 15.86C112.805 15.9133 112.805 15.9667 112.805 16.02C112.805 16.2733 112.878 16.4533 113.025 16.56C113.172 16.6667 113.352 16.72 113.565 16.72C113.738 16.72 113.912 16.7 114.085 16.66C114.272 16.62 114.445 16.5667 114.605 16.5C114.765 16.4333 114.905 16.38 115.025 16.34L115.105 18.46C114.838 18.58 114.538 18.7 114.205 18.82C113.872 18.9267 113.525 19.0133 113.165 19.08C112.805 19.1467 112.445 19.18 112.085 19.18C111.458 19.18 110.938 19.04 110.525 18.76C110.112 18.4667 109.905 17.9933 109.905 17.34Z" fill="white"/>
<path d="M21.7424 9.18211L24.5205 9.98415L27.5741 7.76645L23.1919 7.89207C23.149 7.89441 23.1074 7.90772 23.0711 7.93072L21.6844 8.72794C21.6413 8.75184 21.6063 8.78813 21.584 8.83212C21.5617 8.8761 21.5531 8.92577 21.5594 8.97468C21.5656 9.0236 21.5864 9.06951 21.619 9.10649C21.6517 9.14347 21.6946 9.16981 21.7424 9.18211Z" fill="#EAA121"/>
<path d="M35.4013 6.69867L32.3574 6.04157C32.1014 5.986 31.8365 5.98614 31.5805 6.042C31.3246 6.09785 31.0837 6.20811 30.8741 6.36529L21.6796 13.0474L19.4715 12.9508C19.345 12.9465 19.2204 12.982 19.1152 13.0524C19.01 13.1227 18.9296 13.2243 18.8853 13.3429C18.841 13.4614 18.835 13.5909 18.8682 13.713C18.9015 13.8351 18.9722 13.9437 19.0705 14.0234L21.2206 15.7289C21.256 15.7575 21.2981 15.7765 21.3429 15.7841C21.3878 15.7917 21.4338 15.7877 21.4766 15.7724C22.0902 15.5357 24.3756 14.3229 27.0765 12.8396L27.6176 18.4008C27.6222 18.449 27.6398 18.495 27.6687 18.5338C27.6975 18.5727 27.7363 18.603 27.7811 18.6214C27.8258 18.6398 27.8748 18.6456 27.9226 18.6382C27.9704 18.6309 28.0153 18.6106 28.0524 18.5796L29.2603 17.5746C29.3265 17.5191 29.3709 17.4422 29.386 17.3572L30.5311 10.936C32.4637 9.86337 34.3094 8.82458 35.6091 8.09017C35.7439 8.01678 35.853 7.9037 35.9215 7.76625C35.9899 7.62881 36.0145 7.47364 35.9918 7.32177C35.9691 7.1699 35.9003 7.02867 35.7947 6.91721C35.6891 6.80576 35.5517 6.72947 35.4013 6.69867Z" fill="#EAA121"/>
<path d="M26.0168 15.6892C26.0168 15.6892 22.8986 18.9749 20.4059 18.7752C18.8422 18.6499 17.3588 18.5648 17.6004 16.8114C17.783 15.4865 19.0031 15.4086 19.8448 15.9697C21.4052 17.01 21.0852 19.872 19.2837 20.739C17.421 21.6354 15.6794 20.4828 14.5144 18.7752C13.779 17.6971 13.9289 16.0893 14.3621 14.567C14.986 12.3743 17.3199 10.9199 17.3199 10.9199" stroke="#EAA121" stroke-linecap="round" stroke-linejoin="round" stroke-dasharray="10 5"/>
</svg>
