<svg width="331" height="183" viewBox="0 0 331 183" fill="none" xmlns="http://www.w3.org/2000/svg">
<path d="M0 20C0 8.9543 8.95431 0 20 0H311C322.046 0 331 8.95431 331 20V100.555C331 102.908 329.818 105.103 327.853 106.399L326.169 107.509C318.589 112.507 318.337 123.538 325.681 128.877L328.116 130.648C329.928 131.965 331 134.07 331 136.31V163C331 174.046 322.046 183 311 183H20C8.9543 183 0 174.046 0 163V136.608C0 134.395 1.04641 132.312 2.82195 130.992L5.79989 128.776C12.9845 123.432 12.7408 112.594 5.32324 107.577L3.07861 106.059C1.15346 104.757 0 102.585 0 100.261V20Z" fill="white"/>
</svg>
